# xmcd
#
# Track frame offsets: 
#        150
#        21361
#        43400
#        62773
#        80072
#        102454
#        120013
#        140623
#        162381
#        182177
#        203351
#        220509
#        236155
#        254025
#        270196
#        288169
#        311810
#        331661
#
# Disc length: 4744 seconds
#
# Revision: 0
# Processed by: cddbd v1.5.2PL0 Copyright (c) Steve Scherf et al.
# Submitted via: ExactAudioCopy v0.95a5
#
DISCID=06128612
DTITLE=Various Artist - Î´Öª±êÌâ
DYEAR=1900
DGENRE=
TTITLE0=Losin' the love-Joy Enriquez
TTITLE1=From The Heart-Another level
TTITLE2=Every Moment Of My Life-Sarah Connor
TTITLE3=You Are The One-C21
TTITLE4=To Fall In Love Again-Jessica Simpson
TTITLE5=Miss You-Westlife
TTITLE6=Come A Little Closer-Brandy
TTITLE7=Alejate-Josh Groban
TTITLE8=Walk Me Home-Mandy Moore
TTITLE9=One Sweet Day-Maiah Carey
TTITLE10=Maybe-Alison Krauss
TTITLE11=I Reach For You-Marc Anthony
TTITLE12=Especially For You-Kylie Minogue
TTITLE13=If Tomorrow Never Comes-Ronan Keating
TTITLE14=Ailleurs Comme ici(In E dit)-Helene Segara
TTITLE15=In The Late Of Night-Toni Braxton
TTITLE16=By The TIme Thins Night Is Over-Kenny G
TTITLE17=Hana-Hayley Westenra
EXTD=
EXTT0=
EXTT1=
EXTT2=
EXTT3=
EXTT4=
EXTT5=
EXTT6=
EXTT7=
EXTT8=
EXTT9=
EXTT10=
EXTT11=
EXTT12=
EXTT13=
EXTT14=
EXTT15=
EXTT16=
EXTT17=
PLAYORDER=
